<svg width="246" height="60" viewBox="0 0 246 60" fill="none" xmlns="http://www.w3.org/2000/svg">
<g filter="url(#filter0_d_1_163)">
<path fill-rule="evenodd" clip-rule="evenodd" d="M49.7483 43.5398C50.0218 43.8112 50.2953 44.005 50.4907 44.0825C50.7642 44.16 50.9595 44.1212 51.1549 43.9662C51.4284 43.7336 51.6628 43.346 51.8582 42.8421C52.4052 41.6018 52.6787 39.8963 52.7568 38.9661C52.835 38.3071 52.835 37.6482 52.874 37.0668C52.9131 34.5086 52.9522 32.7643 56.2342 32.2217C59.1256 31.7953 60.6885 30.3999 61.1573 28.6169C61.4308 27.6091 61.3527 26.4075 60.962 25.2059C60.5713 23.9656 59.8289 22.6865 58.813 21.4849C55.3747 17.415 48.6933 14.1979 40.1756 15.6708C36.8936 16.2522 33.6896 17.5313 30.9155 19.4306C28.2977 21.2523 26.0315 23.6168 24.5077 26.4075C23.8044 27.6866 23.3355 28.9658 23.1792 30.0898C23.062 31.0588 23.1402 31.9116 23.57 32.5318C23.9998 33.1907 24.8593 33.6171 26.1878 33.7333C27.4772 33.8109 29.2354 33.5395 31.4625 32.8418C32.8301 32.4155 34.2367 31.8341 35.6042 31.2139C33.5334 29.3921 32.1268 26.8339 31.8142 24.6245C31.697 23.6943 31.736 22.8028 32.0486 22.0663C32.3612 21.2911 32.9473 20.6709 33.7678 20.3221C35.2135 19.7019 37.4406 19.9345 40.6054 21.4849C41.2696 21.795 41.9729 22.1051 42.6372 22.4539C46.1927 19.4306 49.3966 18.9267 51.8972 19.6244C54.1244 20.2446 55.7654 21.8725 56.5468 23.5005C57.4064 25.2835 57.2111 27.144 55.7654 27.958C54.7104 28.5781 52.9131 28.5781 50.3344 27.4153C49.0059 26.7951 47.443 26.0974 45.802 25.3222C44.8252 24.8571 43.8093 24.3532 42.8325 23.8881C42.4027 24.3144 41.9729 24.7796 41.5041 25.2835C40.5663 26.2525 39.5114 27.9967 38.6518 29.8573C40.4882 29.0433 42.1683 28.3068 43.4967 28.0355C46.7397 27.4153 48.8496 28.3456 49.9827 29.741C50.686 30.6712 50.9986 31.7565 50.9204 32.8031C50.8423 33.8884 50.4125 34.8962 49.6311 35.5551C48.5761 36.4854 46.9351 36.8342 44.8252 35.9427L43.4577 35.3613C41.465 34.5473 39.4332 33.6946 37.6359 32.6093C37.5969 32.6868 37.5969 32.7256 37.5969 32.7643C37.2843 33.9271 37.128 35.0512 37.2843 35.9039C37.4015 36.7179 37.7531 37.2993 38.4174 37.6094C38.9253 37.842 39.5895 37.9583 40.5273 37.842C45.4113 37.3381 46.6616 39.1599 48.1073 41.3692C48.5761 42.1057 49.0841 42.8421 49.7483 43.5398ZM50.0609 45.2453C49.7092 45.0903 49.2794 44.8189 48.8887 44.3926C48.1073 43.6174 47.5602 42.8034 47.0523 42.0282C45.8411 40.2064 44.7861 38.6172 40.6445 39.0823C39.5114 39.1986 38.5737 39.0436 37.9094 38.7335C36.8154 38.2296 36.2684 37.2993 36.073 36.0977C35.8777 35.0512 36.034 33.7721 36.3856 32.4542C36.4247 32.3767 36.4247 32.2604 36.4638 32.1829C34.94 32.8418 33.3771 33.5008 31.8533 34.0047C29.4308 34.7799 27.5553 35.0512 26.1097 34.9349C24.3514 34.8186 23.2183 34.1985 22.5541 33.1907C21.9676 32.2992 21.7727 31.1751 21.9676 29.9348C22.1239 28.6557 22.6318 27.2603 23.4133 25.8261C25.0543 22.8415 27.4377 20.3608 30.2118 18.4228C33.1426 16.446 36.5028 15.0894 39.9803 14.4692C48.9668 12.88 56.078 16.3297 59.7507 20.6709C60.8838 22.0276 61.7043 23.4617 62.1341 24.8571C62.603 26.2525 62.6811 27.6866 62.3686 28.927C61.7825 31.1751 59.868 32.9194 56.4296 33.462C54.1634 33.8109 54.1244 35.1287 54.0853 37.0668C54.0853 37.6869 54.0853 38.3459 54.0071 39.0823C53.8899 40.0901 53.5773 41.9506 52.9913 43.3073C52.7178 43.9662 52.3661 44.5476 51.9363 44.8965C51.4284 45.3228 50.8032 45.4779 50.0609 45.2453ZM37.0108 30.5937C37.9485 28.1518 39.3942 25.7486 40.6054 24.4307C40.9571 24.0431 41.3087 23.6943 41.6604 23.3454C41.1133 23.0741 40.6054 22.8028 40.0584 22.5702C37.2452 21.2136 35.3697 20.981 34.2367 21.4461C33.7287 21.6399 33.3771 22.0276 33.1817 22.5314C32.9863 23.0741 32.9473 23.733 33.0254 24.4695C33.3771 26.7951 35.1744 29.1983 37.0108 30.5937ZM38.1829 31.4077L38.0657 31.4464C39.863 32.5318 41.8948 33.3845 43.9265 34.2372C44.3173 34.3923 44.708 34.5473 45.3331 34.8186C46.896 35.4776 48.1073 35.2838 48.8105 34.6636C49.3576 34.1985 49.6311 33.5008 49.7092 32.7256C49.7483 31.9891 49.5138 31.1751 49.0059 30.5162C48.1463 29.3921 46.4272 28.6944 43.7312 29.2371C42.3246 29.5472 40.3319 30.4387 38.1829 31.4077ZM43.8484 23.0353C44.708 23.4229 45.5285 23.8106 46.349 24.1982C47.951 24.9734 49.5138 25.6711 50.8423 26.2913C53.0303 27.2603 54.3979 27.3378 55.1793 26.9114C55.9607 26.4463 55.9998 25.2447 55.4137 24.0044C54.7886 22.6477 53.4211 21.3299 51.5456 20.7872C49.5138 20.2446 46.8569 20.6322 43.8484 23.0353Z" fill="#11D2AC"/>
<path d="M88.5866 37.185C90.9387 37.185 92.6152 36.1341 93.1657 33.757H93.2157C93.1907 35.1082 93.1157 36.1341 93.0406 36.9849H96.844V24.6237H93.0406V29.9786C93.0406 32.681 91.8145 34.0322 89.7626 34.0322C88.1362 34.0322 87.1853 33.2315 87.1853 31.5049V24.6237H83.3819V31.9553C83.3819 35.5836 85.3837 37.185 88.5866 37.185ZM98.7795 36.9849H102.583V31.1046C102.583 28.7525 103.784 27.5764 105.786 27.5764C107.462 27.5764 108.463 28.3521 108.463 30.1037V36.9849H112.267V29.2529C112.267 26.05 110.34 24.4236 107.362 24.4236C104.56 24.4236 103.108 25.5496 102.483 27.9017H102.433L102.583 24.6237H98.7795V36.9849ZM114.152 23.3226H117.956V20.2948H114.152V23.3226ZM114.152 36.9849H117.956V24.6237H114.152V36.9849ZM119.966 36.9849H123.769V31.0795C123.769 28.7525 124.82 27.5764 126.296 27.5764C127.597 27.5764 128.348 28.4522 128.348 29.9035V36.9849H132.152V31.0045C132.152 28.7274 133.203 27.5764 134.704 27.5764C136.005 27.5764 136.756 28.4522 136.756 29.9035V36.9849H140.559V29.0277C140.559 26.1251 139.033 24.4236 136.33 24.4236C133.953 24.4236 132.602 25.6497 132.102 27.6515H132.076C131.801 25.6497 130.275 24.4236 127.898 24.4236C125.646 24.4236 124.244 25.6997 123.669 27.8266H123.644L123.769 24.6237H119.966V36.9849ZM142.425 23.3226H146.228V20.2948H142.425V23.3226ZM142.425 36.9849H146.228V24.6237H142.425V36.9849ZM148.238 36.9849H152.042V31.1046C152.042 28.7525 153.243 27.5764 155.244 27.5764C156.921 27.5764 157.922 28.3521 157.922 30.1037V36.9849H161.725V29.2529C161.725 26.05 159.799 24.4236 156.821 24.4236C154.018 24.4236 152.567 25.5496 151.941 27.9017H151.891L152.042 24.6237H148.238V36.9849ZM169.091 37.185C171.343 37.185 172.744 36.0841 173.219 34.3325H173.269C173.194 35.6587 173.144 36.7346 173.119 36.9849H176.923V19.6443H173.119V26.4504H173.094C172.544 25.1742 171.243 24.4236 169.241 24.4236C165.638 24.4236 163.285 26.9258 163.285 30.7042C163.285 34.5827 165.512 37.185 169.091 37.185ZM169.966 34.2824C168.215 34.2824 167.064 32.8311 167.064 30.7292C167.064 28.6774 168.24 27.3262 170.017 27.3262C171.868 27.3262 173.119 28.5273 173.119 30.3039V30.9044C173.119 32.9312 171.868 34.2824 169.966 34.2824ZM179.506 36.9849H183.21V33.2315H179.506V36.9849ZM191.327 37.185C193.58 37.185 194.981 36.0841 195.456 34.3325H195.506C195.431 35.6587 195.381 36.7346 195.356 36.9849H199.16V19.6443H195.356V26.4504H195.331C194.781 25.1742 193.479 24.4236 191.478 24.4236C187.874 24.4236 185.522 26.9258 185.522 30.7042C185.522 34.5827 187.749 37.185 191.327 37.185ZM192.203 34.2824C190.452 34.2824 189.301 32.8311 189.301 30.7292C189.301 28.6774 190.477 27.3262 192.253 27.3262C194.105 27.3262 195.356 28.5273 195.356 30.3039V30.9044C195.356 32.9312 194.105 34.2824 192.203 34.2824ZM205.847 37.185C208.099 37.185 209.5 36.2342 209.876 34.4826H209.901C209.901 35.2333 209.801 36.3593 209.725 36.9849H213.529V29.4781C213.529 26.1751 211.227 24.4236 207.298 24.4236C203.545 24.4236 201.343 25.8999 201.343 28.4021C201.343 28.6524 201.368 28.9276 201.393 29.1278H204.896C204.871 28.8776 204.871 28.6774 204.871 28.6023C204.871 27.6014 205.697 27.0009 207.123 27.0009C208.875 27.0009 209.725 27.6014 209.725 29.1028V29.9285H205.697C202.419 29.9285 200.968 31.4048 200.968 33.4317C200.968 35.9339 202.969 37.185 205.847 37.185ZM206.598 34.6077C205.221 34.6077 204.396 34.1073 204.396 33.1564C204.396 32.4558 205.021 31.9804 206.047 31.9804H209.725V32.2306C209.725 33.7319 208.574 34.6077 206.598 34.6077ZM221.821 37.185C225.9 37.185 228.552 34.8329 228.552 30.8293C228.552 26.8007 225.9 24.4236 221.821 24.4236C217.742 24.4236 215.09 26.8007 215.09 30.8293C215.09 34.8329 217.742 37.185 221.821 37.185ZM221.821 34.2824C219.969 34.2824 218.893 33.0063 218.893 30.8293C218.893 28.6273 219.969 27.3262 221.821 27.3262C223.673 27.3262 224.749 28.6273 224.749 30.8293C224.749 33.0063 223.673 34.2824 221.821 34.2824Z" fill="white"/>
</g>
<defs>
<filter id="filter0_d_1_163" x="17.8945" y="14.0752" width="214.657" height="39.2782" filterUnits="userSpaceOnUse" color-interpolation-filters="sRGB">
<feFlood flood-opacity="0" result="BackgroundImageFix"/>
<feColorMatrix in="SourceAlpha" type="matrix" values="0 0 0 0 0 0 0 0 0 0 0 0 0 0 0 0 0 0 127 0" result="hardAlpha"/>
<feOffset dy="4"/>
<feGaussianBlur stdDeviation="2"/>
<feComposite in2="hardAlpha" operator="out"/>
<feColorMatrix type="matrix" values="0 0 0 0 0 0 0 0 0 0 0 0 0 0 0 0 0 0 0.25 0"/>
<feBlend mode="normal" in2="BackgroundImageFix" result="effect1_dropShadow_1_163"/>
<feBlend mode="normal" in="SourceGraphic" in2="effect1_dropShadow_1_163" result="shape"/>
</filter>
</defs>
</svg>
